<svg xmlns="http://www.w3.org/2000/svg" viewBox="0 0 24 24"><rect x="2" y="2" width="20" height="20" rx="5" fill="#F5F9FC"/><path d="M8 19c8 0 11-6.5 11-11v-.5A7.5 7.5 0 0 0 22 5s-2 .9-3.5 1.4A4.9 4.9 0 0 0 18 4.5a4.92 4.92 0 0 0-4.9 4.9c0 .4 0 .8.1 1.2A14 14 0 0 1 3 5.7a4.9 4.9 0 0 0 1.5 6.6 4.9 4.9 0 0 1-2.2-.6v.1a4.9 4.9 0 0 0 3.9 4.8 4.9 4.9 0 0 1-2.2.1 4.9 4.9 0 0 0 4.6 3.4A9.8 9.8 0 0 1 2 18.4a14 14 0 0 0 7.5 2.2" fill="none" stroke="#1A1A1A" stroke-width="2" stroke-linecap="round" stroke-linejoin="round"/></svg>
