<svg width="720" height="720" viewBox="0 0 720 720" fill="none" xmlns="http://www.w3.org/2000/svg">
  <rect width="720" height="720" rx="180" fill="#101827"/>
  <circle cx="360" cy="320" r="160" fill="#17213A" stroke="#7CC0FF" stroke-width="12"/>
  <path d="M260 520C260 460 310 420 360 420C410 420 460 460 460 520" stroke="#7CC0FF" stroke-width="14" stroke-linecap="round"/>
  <path d="M260 305C260 247.640 305.64 202 363 202C420.36 202 466 247.64 466 305" stroke="#7CC0FF" stroke-width="14"/>
  <path d="M295 239C295 226.297 304.297 217 317 217H405C417.703 217 427 226.297 427 239V285C427 297.703 417.703 307 405 307H317C304.297 307 295 297.703 295 285V239Z" fill="#0B1320"/>
  <path d="M289 320C289 271.355 327.355 233 376 233H404C452.645 233 491 271.355 491 320V398C491 446.645 452.645 485 404 485H376C327.355 485 289 446.645 289 398V320Z" fill="#0E192D"/>
</svg>
